:SAMPLES-PER-SECOND 30
:FULLY-SPECIFIED
:DEGREES
184
root  45.2326 40.456 0.880126 -9.90887 83.984 -8.06816
RightUpLeg  -6.15028 -13.0095 -5.30501
RightLeg  14.3183 -0.13174 0.845364
RightFoot  -3.28549 -0.305671 4.01256
RightToes  -2.9104e-010 0 -3.6325e-017
Spine  7.4002 1.73183 3.17016
Spine1  13.9318 3.2273 -3.85916
HEad  -25.1037 26.634 -15.3722
LeftShoulder1  9.20979 -14.0619 -45.7173
LeftArm  -8.42929 12.8141 -28.5354
LeftForeArm  25.6242 -22.7186 -3.63187
LeftHand  -0.244104 0.0205437 5.32207
RightShoulder  7.53576 12.2444 41.6105
RightArm  -14.5175 -2.50806 34.562
RightForeArm  13.121 -2.74742 3.99851
RightHand  -0.0185002 -5.39358 -10.9476
LeftUpLeg  -3.17091 5.77852 1.79644
LeftLeg  4.75168 12.6548 -4.71406
LeftFoot  1.44974 -0.666743 5.86505
LeftToes  1.09107e-011 -5.80176e-011 5.60941e-012
185
root  44.9146 40.4503 0.912486 -9.22823 84.1107 -7.16931
RightUpLeg  -5.93647 -12.5363 -5.35037
RightLeg  19.8648 -1.41283 -0.904043
RightFoot  -4.46634 -0.23114 3.34544
RightToes  -2.9104e-010 0 -3.6325e-017
Spine  7.22014 1.76212 3.171
Spine1  13.9108 3.35161 -4.13632
HEad  -24.5538 28.0156 -15.3207
LeftShoulder1  9.06913 -13.8514 -45.5592
LeftArm  -9.9959 12.4212 -28.3784
LeftForeArm  26.851 -25.4833 -4.02508
LeftHand  -0.244104 0.0205437 5.32207
RightShoulder  7.40069 11.9927 41.5216
RightArm  -15.3153 -7.36227 35.4244
RightForeArm  8.27807 -0.293645 4.15798
RightHand  -0.0691532 -4.97338 -13.8185
LeftUpLeg  -3.31047 5.86945 1.88247
LeftLeg  4.44129 12.3264 -4.97349
LeftFoot  2.17357 -0.694293 5.7437
LeftToes  1.09107e-011 -5.80176e-011 5.60941e-012
186
root  44.5902 40.4418 0.981401 -7.96248 84.6395 -5.71658
RightUpLeg  -5.30662 -9.58403 -5.91264
RightLeg  25.6179 -4.32746 -2.47662
RightFoot  -5.02028 -0.195348 2.9208
RightToes  -2.9104e-010 0 -3.6325e-017
Spine  6.84367 1.55439 2.79021
Spine1  13.8595 3.10903 -4.11793
HEad  -24.1203 29.3798 -15.1393
LeftShoulder1  8.86078 -13.4953 -45.4408
LeftArm  -12.2422 12.6195 -28.2727
LeftForeArm  28.2434 -28.967 -4.73075
LeftHand  -0.244104 0.0205437 5.32207
RightShoulder  7.14705 11.5878 41.1484
RightArm  -13.5057 -12.1833 36.1915
RightForeArm  4.84522 4.20632 5.5379
RightHand  -0.419454 -1.97181 -14.2721
LeftUpLeg  -3.48368 5.91471 1.90532
LeftLeg  4.03179 11.6227 -5.31922
LeftFoot  3.00601 -0.722529 5.59084
LeftToes  1.09107e-011 -5.80176e-011 5.60941e-012
187
root  44.2284 40.4177 1.08482 -5.75159 85.3442 -3.16278
RightUpLeg  -4.09818 -7.89723 -6.57487
RightLeg  30.6483 -5.82859 -3.94851
RightFoot  -5.50926 -0.184606 2.88921
RightToes  -2.9104e-010 0 -3.6325e-017
Spine  6.55256 1.21472 2.09175
Spine1  13.893 2.60956 -3.73792
HEad  -24.0352 30.6066 -15.3244
LeftShoulder1  8.70796 -13.2267 -45.3707
LeftArm  -14.0839 13.1478 -28.275
LeftForeArm  29.0494 -32.5489 -5.52722
LeftHand  -0.244104 0.0205437 5.32207
RightShoulder  6.91779 11.3485 40.4143
RightArm  -10.5271 -16.0813 36.9307
RightForeArm  3.70725 8.80177 6.80776
RightHand  -0.469591 -0.726079 -11.541
LeftUpLeg  -3.63281 5.88292 1.84291
LeftLeg  3.75238 10.9566 -5.55788
LeftFoot  3.86888 -0.755883 5.48068
LeftToes  1.09107e-011 -5.80176e-011 5.60941e-012
188
root  43.8049 40.3712 1.20978 -1.60562 85.9164 1.46204
RightUpLeg  -2.35652 -6.93706 -7.39574
RightLeg  34.2676 -6.33774 -4.86924
RightFoot  -6.23645 -0.179426 3.07529
RightToes  -2.9104e-010 0 -3.6325e-017
Spine  6.39104 0.934449 1.55852
Spine1  14.0128 2.23146 -3.48973
HEad  -24.3544 31.5884 -15.985
LeftShoulder1  8.65075 -13.1721 -45.2145
LeftArm  -15.0954 13.5124 -28.443
LeftForeArm  29.451 -35.3601 -6.21355
LeftHand  -0.244104 0.0205437 5.32207
RightShoulder  6.72009 11.2931 39.3117
RightArm  -5.48778 -18.9344 38.1737
RightForeArm  0.0312096 13.3181 7.1948
RightHand  -0.351875 -1.28124 -9.90126
LeftUpLeg  -3.83353 5.75094 1.65649
LeftLeg  3.67941 10.5978 -5.60017
LeftFoot  4.72366 -0.785856 5.36141
LeftToes  1.09107e-011 -5.80176e-011 5.60941e-012
189
root  43.3076 40.3037 1.34756 3.97733 86.1313 7.49631
RightUpLeg  -0.50148 -6.03889 -8.19192
RightLeg  36.3551 -5.86325 -4.87255
RightFoot  -6.74625 -0.180991 3.3714
RightToes  -2.9104e-010 0 -3.6325e-017
Spine  6.27692 0.791354 1.49287
Spine1  14.0824 2.16906 -3.73674
HEad  -24.7683 32.4758 -16.7414
LeftShoulder1  8.62867 -13.2177 -44.9664
LeftArm  -15.3904 13.5085 -28.6772
LeftForeArm  30.0102 -37.1317 -6.65538
LeftHand  -0.244104 0.0205437 5.32207
RightShoulder  6.54273 11.2589 38.2625
RightArm  0.049054 -20.4317 39.6537
RightForeArm  -5.32828 16.757 6.80109
RightHand  -0.402072 -1.34565 -11.3559
LeftUpLeg  -4.24985 5.66643 1.45211
LeftLeg  3.79162 10.3829 -5.56751
LeftFoot  5.52372 -0.80504 5.19993
LeftToes  1.09107e-011 -5.80176e-011 5.60941e-012
190
root  42.7263 40.2102 1.50755 8.77299 85.9912 12.6219
RightUpLeg  1.18732 -4.8279 -8.70219
RightLeg  36.9575 -4.45226 -3.854
RightFoot  -6.20047 -0.225252 4.04503
RightToes  -2.9104e-010 0 -3.6325e-017
Spine  6.17969 0.767295 1.70304
Spine1  14.012 2.30101 -4.22835
HEad  -24.8282 33.3265 -17.1131
LeftShoulder1  8.60315 -13.231 -44.7904
LeftArm  -15.2358 13.2454 -28.8391
LeftForeArm  30.7658 -38.0339 -6.86059
LeftHand  -0.244104 0.0205437 5.32207
RightShoulder  6.44268 11.2066 37.7598
RightArm  3.0311 -20.2312 40.5284
RightForeArm  -7.47578 17.7998 6.67306
RightHand  -0.557524 -0.488831 -13.2393
LeftUpLeg  -5.01627 5.79606 1.36174
LeftLeg  4.13187 10.2477 -5.53998
LeftFoot  6.27461 -0.826936 5.08619
LeftToes  1.09107e-011 -5.80176e-011 5.60941e-012
